<svg id="Laag_1" data-name="Laag 1" xmlns="http://www.w3.org/2000/svg" viewBox="0 0 62.75 62.82"><defs><style>.cls-1{fill:#32974d;}.cls-2{fill:#fff;}</style></defs><title>gebruikerslogo</title><path class="cls-1" d="M0,31.4A31.37,31.37,0,1,1,31.26,62.82,31.34,31.34,0,0,1,0,31.4Z"/><path class="cls-2" d="M19.6,22.94a11.56,11.56,0,0,1,9.8-11.53c6.46-1.1,12.61,3.41,13.54,9.4a21,21,0,0,1-1.33,10.57A15.75,15.75,0,0,1,37.26,38a9.09,9.09,0,0,1-12.35-.53,19,19,0,0,1-4.87-10A23.11,23.11,0,0,1,19.6,22.94Z"/><path class="cls-2" d="M31.33,58.73a27.25,27.25,0,0,1-19.2-7.91c-.64-.63-1.2-1.34-1.81-2-.31-.33-.28-.53.14-.73a13.85,13.85,0,0,1,2.24-.87c2.93-.84,5.86-1.67,8.78-2.52a1,1,0,0,1,1.12.29c2.73,2.78,5.5,5.53,8.23,8.31.42.43.62.4,1,0,2.77-2.84,5.59-5.63,8.39-8.45a.69.69,0,0,1,.77-.16c3.43,1,6.86,1.94,10.28,3,1.63.49,1.63.69.5,2a27.45,27.45,0,0,1-16.64,8.91A21.9,21.9,0,0,1,31.33,58.73Z"/></svg>